PathFileType	4	(X/Y/Z)	C:/Users/opensim2020/Desktop/walking_exp_matlab/subject03_walking13_straight_04.trc	
DataRate	CameraRate	NumFrames	NumMarkers	Units	OrigDataRate	OrigDataStartFrame	OrigNumFrames	
100.00	100.00	5	46	mm	100.00	2187	200	
Frame#	Time	LFHD			RFHD			LBHD			RBHD			C7			T10			CLAV			STRN			RBAK			LSHO			LUPA			LELB			LFRM			LWRA			LWRB			LFIN			RSHO			RUPA			RELB			RFRM			RWRA			RWRB			RFIN			LASI			RASI			LPSI			RPSI			LTHI			LKNE			LTIB			LANK			LHEE			LTOE			RTHI			RKNE			RTIB			RANK			RHEE			RTOE			*39			*40			*41			*42			*43			*44			*45			
		X1	Y1	Z1	X2	Y2	Z2	X3	Y3	Z3	X4	Y4	Z4	X5	Y5	Z5	X6	Y6	Z6	X7	Y7	Z7	X8	Y8	Z8	X9	Y9	Z9	X10	Y10	Z10	X11	Y11	Z11	X12	Y12	Z12	X13	Y13	Z13	X14	Y14	Z14	X15	Y15	Z15	X16	Y16	Z16	X17	Y17	Z17	X18	Y18	Z18	X19	Y19	Z19	X20	Y20	Z20	X21	Y21	Z21	X22	Y22	Z22	X23	Y23	Z23	X24	Y24	Z24	X25	Y25	Z25	X26	Y26	Z26	X27	Y27	Z27	X28	Y28	Z28	X29	Y29	Z29	X30	Y30	Z30	X31	Y31	Z31	X32	Y32	Z32	X33	Y33	Z33	X34	Y34	Z34	X35	Y35	Z35	X36	Y36	Z36	X37	Y37	Z37	X38	Y38	Z38	X39	Y39	Z39	X40	Y40	Z40	X41	Y41	Z41	X42	Y42	Z42	X43	Y43	Z43	X44	Y44	Z44	X45	Y45	Z45	X46	Y46	Z46	

26	0.250	1469.89673	1081.97827	1599.38977	1338.87415	1104.17493	1600.39343	1488.57288	1211.06555	1562.69421	1358.37231	1227.76440	1562.73120	1439.18066	1256.17932	1396.52429	1446.27295	1284.60791	1082.50867	1425.02832	1135.13953	1321.17480	1433.40430	1086.61719	1157.39368	1360.00586	1317.26904	1213.73792	1581.93433	1164.03833	1364.52478	1673.27539	1116.27625	1190.31372	1700.72021	1064.34741	1082.26624	1702.42212	978.62433	984.75787	1672.96716	903.46277	893.74323	1724.53943	921.76123	888.39771	1716.95557	862.17511	830.65869	1272.37341	1205.78345	1338.54651	1204.32300	1228.99915	1115.92322	1187.82813	1225.36926	1003.90692	1180.00537	1232.41150	866.96991	1205.51611	1214.62561	765.50800	1168.02576	1254.52832	768.56470	1174.00928	1245.93909	693.37518	1562.76318	1120.11682	921.22772	1323.56470	1123.03210	918.69000	1509.27808	1282.06555	946.21704	1361.18689	1283.24512	944.78503	1605.14795	1228.49524	631.29858	1572.27661	1274.62183	458.44653	1584.54565	1380.55359	289.59729	1554.14441	1465.31323	93.63103	1520.46472	1514.75525	66.40612	1529.84729	1324.04529	34.84395	1271.88647	1120.30530	625.08533	1313.57813	1032.23730	468.86267	1309.93494	1005.50604	286.08398	1352.18335	938.01074	78.00111	1410.02539	962.70776	38.52546	1358.65356	789.26178	78.40122	1433.71582	1168.33301	1662.45581																		 
27	0.260	1469.96948	1069.48535	1598.71704	1338.96851	1091.90625	1599.75916	1488.84998	1198.41504	1561.46606	1358.61938	1215.26062	1561.53833	1438.64807	1243.34558	1395.39270	1445.63354	1271.67749	1081.54492	1424.98096	1122.40466	1320.03784	1433.32727	1073.81738	1156.48999	1359.13696	1304.14807	1212.97632	1581.57458	1151.62305	1363.41418	1672.65845	1103.37781	1189.70923	1700.30371	1051.30249	1082.05896	1701.05115	962.99017	987.22668	1670.11060	885.03235	899.19116	1721.59143	903.06915	892.49622	1713.29944	841.42102	837.25525	1272.04944	1192.34668	1337.99939	1203.77832	1216.65198	1115.68298	1187.51965	1213.59924	1003.40808	1179.36536	1222.37415	866.67499	1204.89832	1205.81433	764.75525	1167.14111	1245.57739	768.48761	1173.38928	1238.66699	692.87134	1562.95667	1107.67834	920.02008	1323.73621	1109.40271	917.64722	1508.38403	1269.11768	945.23102	1360.26550	1269.78931	944.28064	1605.07263	1218.01440	630.88617	1572.63452	1265.67090	458.09756	1584.74500	1374.76379	291.15613	1554.42554	1463.56238	97.15445	1520.67566	1513.42615	71.02942	1529.77039	1323.77441	34.61177	1271.15186	1108.25525	624.30420	1313.74072	1020.81171	467.84851	1309.57788	991.06580	286.04880	1351.22986	919.99127	78.56716	1408.38245	944.34918	38.21353	1359.94482	771.02533	82.00950	1433.53101	1156.20264	1661.28711																		 
28	0.270	1470.09937	1056.95361	1598.22107	1339.12000	1079.50256	1599.37927	1489.00647	1185.71753	1560.44788	1358.81311	1202.64294	1560.66028	1438.14661	1230.52686	1394.64929	1445.11621	1258.56384	1080.79138	1424.78711	1109.26831	1319.49634	1433.04065	1060.58447	1155.86560	1358.12256	1290.92212	1212.40198	1581.23401	1139.31677	1362.61194	1672.25549	1091.08386	1189.12610	1699.89978	1038.81860	1081.84888	1699.52124	948.02490	989.70972	1667.11243	867.43616	904.74677	1718.49524	885.13135	896.66473	1709.54370	821.56848	844.03833	1271.59558	1178.72766	1337.55371	1203.22937	1204.01294	1115.39563	1187.04236	1201.53784	1003.17194	1178.83350	1211.61133	866.52008	1204.79944	1196.79382	764.27545	1166.24109	1235.96313	768.61658	1173.02405	1230.55212	692.80444	1562.83252	1094.63794	919.01678	1323.66223	1095.65417	917.21027	1507.60803	1255.80432	944.42828	1359.56067	1256.23193	944.14838	1604.69592	1206.71533	630.41827	1573.13269	1256.01111	457.94986	1585.02063	1368.38892	293.05945	1554.86499	1461.26855	101.05769	1521.10156	1511.77966	76.34283	1529.78687	1323.47253	34.58607	1270.98438	1094.53113	624.34229	1313.87854	1008.58112	467.85901	1309.17480	977.57623	285.77011	1350.86133	905.26422	78.58022	1407.51733	930.21667	37.44219	1361.63074	756.67084	83.35429	1432.07532	1143.70154	1663.16357																		 
29	0.280	1470.17981	1044.35620	1597.93713	1339.22131	1066.95544	1599.36560	1489.11536	1172.97729	1559.63440	1358.97266	1190.04272	1560.04565	1437.55408	1217.66223	1394.15942	1444.78223	1245.21667	1080.21094	1424.47876	1096.26001	1319.00513	1432.61108	1047.64954	1155.54016	1357.05054	1277.59973	1212.02124	1580.88147	1127.10608	1362.09436	1671.97192	1079.29712	1188.49902	1699.10901	1026.59192	1081.33118	1697.83728	933.76147	992.12231	1663.99451	850.72614	910.20087	1715.30042	868.15216	900.91394	1705.67419	802.68604	850.84802	1271.13074	1165.12781	1337.37573	1202.62732	1191.09119	1115.47595	1186.58252	1189.07178	1003.02252	1178.14539	1200.30200	866.44025	1203.79919	1186.23157	764.05750	1165.38806	1225.38708	768.77338	1172.68127	1221.51440	692.80792	1562.46716	1081.17676	918.22559	1323.19312	1081.81750	917.29913	1506.90991	1242.07349	943.74463	1358.94495	1242.69739	944.22815	1604.91199	1194.92944	630.47461	1573.54626	1245.44080	457.74670	1585.35828	1361.41736	295.19791	1555.46985	1458.58813	105.42056	1521.75134	1509.69385	82.29220	1529.81140	1323.06445	34.51658	1271.82300	1079.29175	625.27472	1314.09045	995.18811	468.56586	1308.90417	964.91333	285.33203	1351.00037	894.59326	77.57793	1407.12341	920.28918	36.06868	1363.72095	746.15491	81.88257	1432.40503	1131.38171	1662.65955																		 
30	0.290	1470.32568	1031.79773	1597.86792	1339.36731	1054.42224	1599.44592	1489.18127	1160.25525	1558.97095	1359.07922	1177.34229	1559.69568	1436.89832	1204.69739	1393.89514	1444.51160	1231.70850	1079.79529	1424.07800	1082.95862	1318.83606	1431.97461	1034.17053	1155.33936	1355.91687	1264.15955	1211.79700	1580.51062	1114.81079	1361.76074	1671.70422	1067.95471	1187.83484	1698.60657	1015.24530	1081.21130	1696.12769	920.18982	994.52972	1660.89478	834.92218	915.54315	1712.03809	851.99231	905.05487	1701.79370	784.79364	857.67267	1270.54395	1151.52222	1337.39050	1202.02942	1177.68384	1115.37329	1185.94409	1176.31580	1003.01862	1177.49731	1188.38318	866.57654	1203.24231	1175.30334	763.89484	1164.51367	1214.09924	769.06677	1172.25281	1211.63477	692.84094	1561.77075	1067.16479	917.62274	1322.37622	1067.82080	917.84039	1506.36121	1228.01001	943.24054	1358.49402	1228.98718	944.41644	1604.60962	1182.23853	630.42944	1574.33411	1234.11279	457.93762	1586.04333	1353.52991	297.42807	1555.84204	1454.95483	109.54648	1522.63940	1506.93921	88.85999	1529.86572	1322.61292	34.41132	1272.61304	1063.83276	626.46002	1314.55811	981.29480	469.52536	1308.97351	953.20306	284.56451	1351.40112	887.36322	75.38710	1407.09595	914.31183	34.52752	1366.05847	739.02545	77.69367	1435.08020	1119.18701	1659.94055																		 
